<!-- fold institutional logo — grey sphere + white text -->
<svg viewBox="0 0 100 100" fill="none" xmlns="http://www.w3.org/2000/svg" aria-label="fold logo">
  <g fill="#555">
    <circle cx="30.5" cy="11.0" r="0.63"/><circle cx="37.0" cy="11.0" r="0.83"/><circle cx="43.5" cy="11.0" r="0.96"/><circle cx="50.0" cy="11.0" r="1.00"/><circle cx="56.5" cy="11.0" r="0.96"/><circle cx="63.0" cy="11.0" r="0.83"/><circle cx="69.5" cy="11.0" r="0.63"/>
    <circle cx="24.0" cy="17.5" r="0.79"/><circle cx="30.5" cy="17.5" r="1.08"/><circle cx="37.0" cy="17.5" r="1.30"/><circle cx="43.5" cy="17.5" r="1.43"/><circle cx="50.0" cy="17.5" r="1.48"/><circle cx="56.5" cy="17.5" r="1.43"/><circle cx="63.0" cy="17.5" r="1.30"/><circle cx="69.5" cy="17.5" r="1.08"/><circle cx="76.0" cy="17.5" r="0.79"/>
    <circle cx="17.5" cy="24.0" r="0.79"/><circle cx="24.0" cy="24.0" r="1.17"/><circle cx="30.5" cy="24.0" r="1.48"/><circle cx="37.0" cy="24.0" r="1.71"/><circle cx="43.5" cy="24.0" r="1.86"/><circle cx="50.0" cy="24.0" r="1.91"/><circle cx="56.5" cy="24.0" r="1.86"/><circle cx="63.0" cy="24.0" r="1.71"/><circle cx="69.5" cy="24.0" r="1.48"/><circle cx="76.0" cy="24.0" r="1.17"/><circle cx="82.5" cy="24.0" r="0.79"/>
    <circle cx="11.0" cy="30.5" r="0.63"/><circle cx="17.5" cy="30.5" r="1.08"/><circle cx="24.0" cy="30.5" r="1.48"/><circle cx="30.5" cy="30.5" r="1.81"/><circle cx="37.0" cy="30.5" r="2.07"/><circle cx="43.5" cy="30.5" r="2.23"/><circle cx="50.0" cy="30.5" r="2.29"/><circle cx="56.5" cy="30.5" r="2.23"/><circle cx="63.0" cy="30.5" r="2.07"/><circle cx="69.5" cy="30.5" r="1.81"/><circle cx="76.0" cy="30.5" r="1.48"/><circle cx="82.5" cy="30.5" r="1.08"/><circle cx="89.0" cy="30.5" r="0.63"/>
    <circle cx="11.0" cy="37.0" r="0.83"/><circle cx="17.5" cy="37.0" r="1.30"/><circle cx="24.0" cy="37.0" r="1.71"/><circle cx="30.5" cy="37.0" r="2.07"/><circle cx="37.0" cy="37.0" r="2.35"/><circle cx="43.5" cy="37.0" r="2.54"/><circle cx="50.0" cy="37.0" r="2.61"/><circle cx="56.5" cy="37.0" r="2.54"/><circle cx="63.0" cy="37.0" r="2.35"/><circle cx="69.5" cy="37.0" r="2.07"/><circle cx="76.0" cy="37.0" r="1.71"/><circle cx="82.5" cy="37.0" r="1.30"/><circle cx="89.0" cy="37.0" r="0.83"/>
    <circle cx="11.0" cy="43.5" r="0.96"/><circle cx="17.5" cy="43.5" r="1.43"/><circle cx="24.0" cy="43.5" r="1.86"/><circle cx="30.5" cy="43.5" r="2.23"/><circle cx="37.0" cy="43.5" r="2.54"/><circle cx="43.5" cy="43.5" r="2.77"/><circle cx="50.0" cy="43.5" r="2.86"/><circle cx="56.5" cy="43.5" r="2.77"/><circle cx="63.0" cy="43.5" r="2.54"/><circle cx="69.5" cy="43.5" r="2.23"/><circle cx="76.0" cy="43.5" r="1.86"/><circle cx="82.5" cy="43.5" r="1.43"/><circle cx="89.0" cy="43.5" r="0.96"/>
    <circle cx="11.0" cy="50.0" r="1.00"/><circle cx="17.5" cy="50.0" r="1.48"/><circle cx="24.0" cy="50.0" r="1.91"/><circle cx="30.5" cy="50.0" r="2.29"/><circle cx="37.0" cy="50.0" r="2.61"/><circle cx="43.5" cy="50.0" r="2.86"/><circle cx="50.0" cy="50.0" r="3.00"/><circle cx="56.5" cy="50.0" r="2.86"/><circle cx="63.0" cy="50.0" r="2.61"/><circle cx="69.5" cy="50.0" r="2.29"/><circle cx="76.0" cy="50.0" r="1.91"/><circle cx="82.5" cy="50.0" r="1.48"/><circle cx="89.0" cy="50.0" r="1.00"/>
    <circle cx="11.0" cy="56.5" r="0.96"/><circle cx="17.5" cy="56.5" r="1.43"/><circle cx="24.0" cy="56.5" r="1.86"/><circle cx="30.5" cy="56.5" r="2.23"/><circle cx="37.0" cy="56.5" r="2.54"/><circle cx="43.5" cy="56.5" r="2.77"/><circle cx="50.0" cy="56.5" r="2.86"/><circle cx="56.5" cy="56.5" r="2.77"/><circle cx="63.0" cy="56.5" r="2.54"/><circle cx="69.5" cy="56.5" r="2.23"/><circle cx="76.0" cy="56.5" r="1.86"/><circle cx="82.5" cy="56.5" r="1.43"/><circle cx="89.0" cy="56.5" r="0.96"/>
    <circle cx="11.0" cy="63.0" r="0.83"/><circle cx="17.5" cy="63.0" r="1.30"/><circle cx="24.0" cy="63.0" r="1.71"/><circle cx="30.5" cy="63.0" r="2.07"/><circle cx="37.0" cy="63.0" r="2.35"/><circle cx="43.5" cy="63.0" r="2.54"/><circle cx="50.0" cy="63.0" r="2.61"/><circle cx="56.5" cy="63.0" r="2.54"/><circle cx="63.0" cy="63.0" r="2.35"/><circle cx="69.5" cy="63.0" r="2.07"/><circle cx="76.0" cy="63.0" r="1.71"/><circle cx="82.5" cy="63.0" r="1.30"/><circle cx="89.0" cy="63.0" r="0.83"/>
    <circle cx="11.0" cy="69.5" r="0.63"/><circle cx="17.5" cy="69.5" r="1.08"/><circle cx="24.0" cy="69.5" r="1.48"/><circle cx="30.5" cy="69.5" r="1.81"/><circle cx="37.0" cy="69.5" r="2.07"/><circle cx="43.5" cy="69.5" r="2.23"/><circle cx="50.0" cy="69.5" r="2.29"/><circle cx="56.5" cy="69.5" r="2.23"/><circle cx="63.0" cy="69.5" r="2.07"/><circle cx="69.5" cy="69.5" r="1.81"/><circle cx="76.0" cy="69.5" r="1.48"/><circle cx="82.5" cy="69.5" r="1.08"/><circle cx="89.0" cy="69.5" r="0.63"/>
    <circle cx="17.5" cy="76.0" r="0.79"/><circle cx="24.0" cy="76.0" r="1.17"/><circle cx="30.5" cy="76.0" r="1.48"/><circle cx="37.0" cy="76.0" r="1.71"/><circle cx="43.5" cy="76.0" r="1.86"/><circle cx="50.0" cy="76.0" r="1.91"/><circle cx="56.5" cy="76.0" r="1.86"/><circle cx="63.0" cy="76.0" r="1.71"/><circle cx="69.5" cy="76.0" r="1.48"/><circle cx="76.0" cy="76.0" r="1.17"/><circle cx="82.5" cy="76.0" r="0.79"/>
    <circle cx="24.0" cy="82.5" r="0.79"/><circle cx="30.5" cy="82.5" r="1.08"/><circle cx="37.0" cy="82.5" r="1.30"/><circle cx="43.5" cy="82.5" r="1.43"/><circle cx="50.0" cy="82.5" r="1.48"/><circle cx="56.5" cy="82.5" r="1.43"/><circle cx="63.0" cy="82.5" r="1.30"/><circle cx="69.5" cy="82.5" r="1.08"/><circle cx="76.0" cy="82.5" r="0.79"/>
    <circle cx="30.5" cy="89.0" r="0.63"/><circle cx="37.0" cy="89.0" r="0.83"/><circle cx="43.5" cy="89.0" r="0.96"/><circle cx="50.0" cy="89.0" r="1.00"/><circle cx="56.5" cy="89.0" r="0.96"/><circle cx="63.0" cy="89.0" r="0.83"/><circle cx="69.5" cy="89.0" r="0.63"/>
  </g>
  <text x="50" y="54" text-anchor="middle" font-family="'Erode', Georgia, serif" font-style="italic" font-weight="500" font-size="14" fill="#fff" letter-spacing="1">fold</text>
</svg>
