<!-- fold institutional logo — sphere with centered text, two-tone depth, clear zone -->
<svg viewBox="0 0 100 100" fill="none" xmlns="http://www.w3.org/2000/svg" aria-label="fold logo">
  <circle cx="30.5" cy="11.0" r="0.5" fill="currentColor" opacity="0.28"/>
  <circle cx="37.0" cy="11.0" r="0.5" fill="currentColor" opacity="0.31"/>
  <circle cx="43.5" cy="11.0" r="0.5" fill="currentColor" opacity="0.34"/>
  <circle cx="50.0" cy="11.0" r="0.5" fill="currentColor" opacity="0.35"/>
  <circle cx="56.5" cy="11.0" r="0.5" fill="currentColor" opacity="0.34"/>
  <circle cx="63.0" cy="11.0" r="0.5" fill="currentColor" opacity="0.31"/>
  <circle cx="69.5" cy="11.0" r="0.5" fill="currentColor" opacity="0.28"/>
  <circle cx="24.0" cy="17.5" r="0.5" fill="currentColor" opacity="0.31"/>
  <circle cx="30.5" cy="17.5" r="0.5" fill="currentColor" opacity="0.37"/>
  <circle cx="37.0" cy="17.5" r="0.67" fill="currentColor" opacity="0.42"/>
  <circle cx="43.5" cy="17.5" r="0.79" fill="currentColor" opacity="0.45"/>
  <circle cx="50.0" cy="17.5" r="0.83" fill="currentColor" opacity="0.46"/>
  <circle cx="56.5" cy="17.5" r="0.79" fill="currentColor" opacity="0.45"/>
  <circle cx="63.0" cy="17.5" r="0.67" fill="currentColor" opacity="0.42"/>
  <circle cx="69.5" cy="17.5" r="0.5" fill="currentColor" opacity="0.37"/>
  <circle cx="76.0" cy="17.5" r="0.5" fill="currentColor" opacity="0.31"/>
  <circle cx="17.5" cy="24.0" r="0.5" fill="currentColor" opacity="0.31"/>
  <circle cx="24.0" cy="24.0" r="0.55" fill="currentColor" opacity="0.39"/>
  <circle cx="30.5" cy="24.0" r="0.83" fill="currentColor" opacity="0.46"/>
  <circle cx="37.0" cy="24.0" r="1.06" fill="currentColor" opacity="0.52"/>
  <circle cx="43.5" cy="24.0" r="1.21" fill="currentColor" opacity="0.55"/>
  <circle cx="50.0" cy="24.0" r="1.27" fill="currentColor" opacity="0.57"/>
  <circle cx="56.5" cy="24.0" r="1.21" fill="currentColor" opacity="0.55"/>
  <circle cx="63.0" cy="24.0" r="1.06" fill="currentColor" opacity="0.52"/>
  <circle cx="69.5" cy="24.0" r="0.83" fill="currentColor" opacity="0.46"/>
  <circle cx="76.0" cy="24.0" r="0.55" fill="currentColor" opacity="0.39"/>
  <circle cx="82.5" cy="24.0" r="0.5" fill="currentColor" opacity="0.31"/>
  <circle cx="11.0" cy="30.5" r="0.5" fill="currentColor" opacity="0.28"/>
  <circle cx="17.5" cy="30.5" r="0.5" fill="currentColor" opacity="0.37"/>
  <circle cx="24.0" cy="30.5" r="0.83" fill="currentColor" opacity="0.46"/>
  <circle cx="30.5" cy="30.5" r="1.16" fill="currentColor" opacity="0.54"/>
  <circle cx="37.0" cy="30.5" r="1.44" fill="currentColor" opacity="0.61"/>
  <circle cx="43.5" cy="30.5" r="1.63" fill="currentColor" opacity="0.66"/>
  <circle cx="50.0" cy="30.5" r="1.7" fill="currentColor" opacity="0.68"/>
  <circle cx="56.5" cy="30.5" r="1.63" fill="currentColor" opacity="0.66"/>
  <circle cx="63.0" cy="30.5" r="1.44" fill="currentColor" opacity="0.61"/>
  <circle cx="69.5" cy="30.5" r="1.16" fill="currentColor" opacity="0.54"/>
  <circle cx="76.0" cy="30.5" r="0.83" fill="currentColor" opacity="0.46"/>
  <circle cx="82.5" cy="30.5" r="0.5" fill="currentColor" opacity="0.37"/>
  <circle cx="89.0" cy="30.5" r="0.5" fill="currentColor" opacity="0.28"/>
  <circle cx="11.0" cy="37.0" r="0.5" fill="currentColor" opacity="0.31"/>
  <circle cx="17.5" cy="37.0" r="0.67" fill="currentColor" opacity="0.42"/>
  <circle cx="24.0" cy="37.0" r="1.06" fill="currentColor" opacity="0.52"/>
  <circle cx="30.5" cy="37.0" r="1.44" fill="currentColor" opacity="0.61"/>
  <circle cx="37.0" cy="37.0" r="1.77" fill="currentColor" opacity="0.69"/>
  <circle cx="43.5" cy="37.0" r="2.03" fill="currentColor" opacity="0.76"/>
  <circle cx="50.0" cy="37.0" r="2.13" fill="currentColor" opacity="0.78"/>
  <circle cx="56.5" cy="37.0" r="2.03" fill="currentColor" opacity="0.76"/>
  <circle cx="63.0" cy="37.0" r="1.77" fill="currentColor" opacity="0.69"/>
  <circle cx="69.5" cy="37.0" r="1.44" fill="currentColor" opacity="0.61"/>
  <circle cx="76.0" cy="37.0" r="1.06" fill="currentColor" opacity="0.52"/>
  <circle cx="82.5" cy="37.0" r="0.67" fill="currentColor" opacity="0.42"/>
  <circle cx="89.0" cy="37.0" r="0.5" fill="currentColor" opacity="0.31"/>
  <circle cx="11.0" cy="43.5" r="0.5" fill="currentColor" opacity="0.34"/>
  <circle cx="17.5" cy="43.5" r="0.79" fill="currentColor" opacity="0.45"/>
  <circle cx="24.0" cy="43.5" r="1.21" fill="currentColor" opacity="0.55"/>
  <circle cx="30.5" cy="43.5" r="1.63" fill="currentColor" opacity="0.66"/>
  <circle cx="37.0" cy="43.5" r="1.4" fill="currentColor" opacity="0.17"/>
  <circle cx="63.0" cy="43.5" r="1.4" fill="currentColor" opacity="0.17"/>
  <circle cx="69.5" cy="43.5" r="1.63" fill="currentColor" opacity="0.66"/>
  <circle cx="76.0" cy="43.5" r="1.21" fill="currentColor" opacity="0.55"/>
  <circle cx="82.5" cy="43.5" r="0.79" fill="currentColor" opacity="0.45"/>
  <circle cx="89.0" cy="43.5" r="0.5" fill="currentColor" opacity="0.34"/>
  <circle cx="11.0" cy="50.0" r="0.5" fill="currentColor" opacity="0.35"/>
  <circle cx="17.5" cy="50.0" r="0.83" fill="currentColor" opacity="0.46"/>
  <circle cx="24.0" cy="50.0" r="1.27" fill="currentColor" opacity="0.57"/>
  <circle cx="30.5" cy="50.0" r="1.17" fill="currentColor" opacity="0.15"/>
  <circle cx="69.5" cy="50.0" r="1.17" fill="currentColor" opacity="0.15"/>
  <circle cx="76.0" cy="50.0" r="1.27" fill="currentColor" opacity="0.57"/>
  <circle cx="82.5" cy="50.0" r="0.83" fill="currentColor" opacity="0.46"/>
  <circle cx="89.0" cy="50.0" r="0.5" fill="currentColor" opacity="0.35"/>
  <circle cx="11.0" cy="56.5" r="0.5" fill="currentColor" opacity="0.34"/>
  <circle cx="17.5" cy="56.5" r="0.79" fill="currentColor" opacity="0.45"/>
  <circle cx="24.0" cy="56.5" r="1.21" fill="currentColor" opacity="0.55"/>
  <circle cx="30.5" cy="56.5" r="1.63" fill="currentColor" opacity="0.66"/>
  <circle cx="37.0" cy="56.5" r="1.4" fill="currentColor" opacity="0.17"/>
  <circle cx="63.0" cy="56.5" r="1.4" fill="currentColor" opacity="0.17"/>
  <circle cx="69.5" cy="56.5" r="1.63" fill="currentColor" opacity="0.66"/>
  <circle cx="76.0" cy="56.5" r="1.21" fill="currentColor" opacity="0.55"/>
  <circle cx="82.5" cy="56.5" r="0.79" fill="currentColor" opacity="0.45"/>
  <circle cx="89.0" cy="56.5" r="0.5" fill="currentColor" opacity="0.34"/>
  <circle cx="11.0" cy="63.0" r="0.5" fill="currentColor" opacity="0.31"/>
  <circle cx="17.5" cy="63.0" r="0.67" fill="currentColor" opacity="0.42"/>
  <circle cx="24.0" cy="63.0" r="1.06" fill="currentColor" opacity="0.52"/>
  <circle cx="30.5" cy="63.0" r="1.44" fill="currentColor" opacity="0.61"/>
  <circle cx="37.0" cy="63.0" r="1.77" fill="currentColor" opacity="0.69"/>
  <circle cx="43.5" cy="63.0" r="2.03" fill="currentColor" opacity="0.76"/>
  <circle cx="50.0" cy="63.0" r="2.13" fill="currentColor" opacity="0.78"/>
  <circle cx="56.5" cy="63.0" r="2.03" fill="currentColor" opacity="0.76"/>
  <circle cx="63.0" cy="63.0" r="1.77" fill="currentColor" opacity="0.69"/>
  <circle cx="69.5" cy="63.0" r="1.44" fill="currentColor" opacity="0.61"/>
  <circle cx="76.0" cy="63.0" r="1.06" fill="currentColor" opacity="0.52"/>
  <circle cx="82.5" cy="63.0" r="0.67" fill="currentColor" opacity="0.42"/>
  <circle cx="89.0" cy="63.0" r="0.5" fill="currentColor" opacity="0.31"/>
  <circle cx="11.0" cy="69.5" r="0.5" fill="currentColor" opacity="0.28"/>
  <circle cx="17.5" cy="69.5" r="0.5" fill="currentColor" opacity="0.37"/>
  <circle cx="24.0" cy="69.5" r="0.83" fill="currentColor" opacity="0.46"/>
  <circle cx="30.5" cy="69.5" r="1.16" fill="currentColor" opacity="0.54"/>
  <circle cx="37.0" cy="69.5" r="1.44" fill="currentColor" opacity="0.61"/>
  <circle cx="43.5" cy="69.5" r="1.63" fill="currentColor" opacity="0.66"/>
  <circle cx="50.0" cy="69.5" r="1.7" fill="currentColor" opacity="0.68"/>
  <circle cx="56.5" cy="69.5" r="1.63" fill="currentColor" opacity="0.66"/>
  <circle cx="63.0" cy="69.5" r="1.44" fill="currentColor" opacity="0.61"/>
  <circle cx="69.5" cy="69.5" r="1.16" fill="currentColor" opacity="0.54"/>
  <circle cx="76.0" cy="69.5" r="0.83" fill="currentColor" opacity="0.46"/>
  <circle cx="82.5" cy="69.5" r="0.5" fill="currentColor" opacity="0.37"/>
  <circle cx="89.0" cy="69.5" r="0.5" fill="currentColor" opacity="0.28"/>
  <circle cx="17.5" cy="76.0" r="0.5" fill="currentColor" opacity="0.31"/>
  <circle cx="24.0" cy="76.0" r="0.55" fill="currentColor" opacity="0.39"/>
  <circle cx="30.5" cy="76.0" r="0.83" fill="currentColor" opacity="0.46"/>
  <circle cx="37.0" cy="76.0" r="1.06" fill="currentColor" opacity="0.52"/>
  <circle cx="43.5" cy="76.0" r="1.21" fill="currentColor" opacity="0.55"/>
  <circle cx="50.0" cy="76.0" r="1.27" fill="currentColor" opacity="0.57"/>
  <circle cx="56.5" cy="76.0" r="1.21" fill="currentColor" opacity="0.55"/>
  <circle cx="63.0" cy="76.0" r="1.06" fill="currentColor" opacity="0.52"/>
  <circle cx="69.5" cy="76.0" r="0.83" fill="currentColor" opacity="0.46"/>
  <circle cx="76.0" cy="76.0" r="0.55" fill="currentColor" opacity="0.39"/>
  <circle cx="82.5" cy="76.0" r="0.5" fill="currentColor" opacity="0.31"/>
  <circle cx="24.0" cy="82.5" r="0.5" fill="currentColor" opacity="0.31"/>
  <circle cx="30.5" cy="82.5" r="0.5" fill="currentColor" opacity="0.37"/>
  <circle cx="37.0" cy="82.5" r="0.67" fill="currentColor" opacity="0.42"/>
  <circle cx="43.5" cy="82.5" r="0.79" fill="currentColor" opacity="0.45"/>
  <circle cx="50.0" cy="82.5" r="0.83" fill="currentColor" opacity="0.46"/>
  <circle cx="56.5" cy="82.5" r="0.79" fill="currentColor" opacity="0.45"/>
  <circle cx="63.0" cy="82.5" r="0.67" fill="currentColor" opacity="0.42"/>
  <circle cx="69.5" cy="82.5" r="0.5" fill="currentColor" opacity="0.37"/>
  <circle cx="76.0" cy="82.5" r="0.5" fill="currentColor" opacity="0.31"/>
  <circle cx="30.5" cy="89.0" r="0.5" fill="currentColor" opacity="0.28"/>
  <circle cx="37.0" cy="89.0" r="0.5" fill="currentColor" opacity="0.31"/>
  <circle cx="43.5" cy="89.0" r="0.5" fill="currentColor" opacity="0.34"/>
  <circle cx="50.0" cy="89.0" r="0.5" fill="currentColor" opacity="0.35"/>
  <circle cx="56.5" cy="89.0" r="0.5" fill="currentColor" opacity="0.34"/>
  <circle cx="63.0" cy="89.0" r="0.5" fill="currentColor" opacity="0.31"/>
  <circle cx="69.5" cy="89.0" r="0.5" fill="currentColor" opacity="0.28"/>
  <text x="50" y="53.5" text-anchor="middle" font-family="'Erode', Georgia, serif" font-style="italic" font-weight="500" font-size="13.5" fill="currentColor" letter-spacing="1.2">fold</text>
</svg>