<!-- Halftone dot circle logo for fold -->
<svg viewBox="0 0 100 100" fill="none" xmlns="http://www.w3.org/2000/svg" aria-label="fold logo mark">
  <circle cx="30.5" cy="11.0" r="0.63" fill="currentColor"/>
  <circle cx="37.0" cy="11.0" r="0.83" fill="currentColor"/>
  <circle cx="43.5" cy="11.0" r="0.96" fill="currentColor"/>
  <circle cx="50.0" cy="11.0" r="1.00" fill="currentColor"/>
  <circle cx="56.5" cy="11.0" r="0.96" fill="currentColor"/>
  <circle cx="63.0" cy="11.0" r="0.83" fill="currentColor"/>
  <circle cx="69.5" cy="11.0" r="0.63" fill="currentColor"/>
  <circle cx="24.0" cy="17.5" r="0.79" fill="currentColor"/>
  <circle cx="30.5" cy="17.5" r="1.08" fill="currentColor"/>
  <circle cx="37.0" cy="17.5" r="1.30" fill="currentColor"/>
  <circle cx="43.5" cy="17.5" r="1.43" fill="currentColor"/>
  <circle cx="50.0" cy="17.5" r="1.48" fill="currentColor"/>
  <circle cx="56.5" cy="17.5" r="1.43" fill="currentColor"/>
  <circle cx="63.0" cy="17.5" r="1.30" fill="currentColor"/>
  <circle cx="69.5" cy="17.5" r="1.08" fill="currentColor"/>
  <circle cx="76.0" cy="17.5" r="0.79" fill="currentColor"/>
  <circle cx="17.5" cy="24.0" r="0.79" fill="currentColor"/>
  <circle cx="24.0" cy="24.0" r="1.17" fill="currentColor"/>
  <circle cx="30.5" cy="24.0" r="1.48" fill="currentColor"/>
  <circle cx="37.0" cy="24.0" r="1.71" fill="currentColor"/>
  <circle cx="43.5" cy="24.0" r="1.86" fill="currentColor"/>
  <circle cx="50.0" cy="24.0" r="1.91" fill="currentColor"/>
  <circle cx="56.5" cy="24.0" r="1.86" fill="currentColor"/>
  <circle cx="63.0" cy="24.0" r="1.71" fill="currentColor"/>
  <circle cx="69.5" cy="24.0" r="1.48" fill="currentColor"/>
  <circle cx="76.0" cy="24.0" r="1.17" fill="currentColor"/>
  <circle cx="82.5" cy="24.0" r="0.79" fill="currentColor"/>
  <circle cx="11.0" cy="30.5" r="0.63" fill="currentColor"/>
  <circle cx="17.5" cy="30.5" r="1.08" fill="currentColor"/>
  <circle cx="24.0" cy="30.5" r="1.48" fill="currentColor"/>
  <circle cx="30.5" cy="30.5" r="1.81" fill="currentColor"/>
  <circle cx="37.0" cy="30.5" r="2.07" fill="currentColor"/>
  <circle cx="43.5" cy="30.5" r="2.23" fill="currentColor"/>
  <circle cx="50.0" cy="30.5" r="2.29" fill="currentColor"/>
  <circle cx="56.5" cy="30.5" r="2.23" fill="currentColor"/>
  <circle cx="63.0" cy="30.5" r="2.07" fill="currentColor"/>
  <circle cx="69.5" cy="30.5" r="1.81" fill="currentColor"/>
  <circle cx="76.0" cy="30.5" r="1.48" fill="currentColor"/>
  <circle cx="82.5" cy="30.5" r="1.08" fill="currentColor"/>
  <circle cx="89.0" cy="30.5" r="0.63" fill="currentColor"/>
  <circle cx="11.0" cy="37.0" r="0.83" fill="currentColor"/>
  <circle cx="17.5" cy="37.0" r="1.30" fill="currentColor"/>
  <circle cx="24.0" cy="37.0" r="1.71" fill="currentColor"/>
  <circle cx="30.5" cy="37.0" r="2.07" fill="currentColor"/>
  <circle cx="37.0" cy="37.0" r="2.35" fill="currentColor"/>
  <circle cx="43.5" cy="37.0" r="2.54" fill="currentColor"/>
  <circle cx="50.0" cy="37.0" r="2.61" fill="currentColor"/>
  <circle cx="56.5" cy="37.0" r="2.54" fill="currentColor"/>
  <circle cx="63.0" cy="37.0" r="2.35" fill="currentColor"/>
  <circle cx="69.5" cy="37.0" r="2.07" fill="currentColor"/>
  <circle cx="76.0" cy="37.0" r="1.71" fill="currentColor"/>
  <circle cx="82.5" cy="37.0" r="1.30" fill="currentColor"/>
  <circle cx="89.0" cy="37.0" r="0.83" fill="currentColor"/>
  <circle cx="11.0" cy="43.5" r="0.96" fill="currentColor"/>
  <circle cx="17.5" cy="43.5" r="1.43" fill="currentColor"/>
  <circle cx="24.0" cy="43.5" r="1.86" fill="currentColor"/>
  <circle cx="30.5" cy="43.5" r="2.23" fill="currentColor"/>
  <circle cx="37.0" cy="43.5" r="2.54" fill="currentColor"/>
  <circle cx="43.5" cy="43.5" r="2.77" fill="currentColor"/>
  <circle cx="50.0" cy="43.5" r="2.86" fill="currentColor"/>
  <circle cx="56.5" cy="43.5" r="2.77" fill="currentColor"/>
  <circle cx="63.0" cy="43.5" r="2.54" fill="currentColor"/>
  <circle cx="69.5" cy="43.5" r="2.23" fill="currentColor"/>
  <circle cx="76.0" cy="43.5" r="1.86" fill="currentColor"/>
  <circle cx="82.5" cy="43.5" r="1.43" fill="currentColor"/>
  <circle cx="89.0" cy="43.5" r="0.96" fill="currentColor"/>
  <circle cx="11.0" cy="50.0" r="1.00" fill="currentColor"/>
  <circle cx="17.5" cy="50.0" r="1.48" fill="currentColor"/>
  <circle cx="24.0" cy="50.0" r="1.91" fill="currentColor"/>
  <circle cx="30.5" cy="50.0" r="2.29" fill="currentColor"/>
  <circle cx="37.0" cy="50.0" r="2.61" fill="currentColor"/>
  <circle cx="43.5" cy="50.0" r="2.86" fill="currentColor"/>
  <circle cx="50.0" cy="50.0" r="3.00" fill="currentColor"/>
  <circle cx="56.5" cy="50.0" r="2.86" fill="currentColor"/>
  <circle cx="63.0" cy="50.0" r="2.61" fill="currentColor"/>
  <circle cx="69.5" cy="50.0" r="2.29" fill="currentColor"/>
  <circle cx="76.0" cy="50.0" r="1.91" fill="currentColor"/>
  <circle cx="82.5" cy="50.0" r="1.48" fill="currentColor"/>
  <circle cx="89.0" cy="50.0" r="1.00" fill="currentColor"/>
  <circle cx="11.0" cy="56.5" r="0.96" fill="currentColor"/>
  <circle cx="17.5" cy="56.5" r="1.43" fill="currentColor"/>
  <circle cx="24.0" cy="56.5" r="1.86" fill="currentColor"/>
  <circle cx="30.5" cy="56.5" r="2.23" fill="currentColor"/>
  <circle cx="37.0" cy="56.5" r="2.54" fill="currentColor"/>
  <circle cx="43.5" cy="56.5" r="2.77" fill="currentColor"/>
  <circle cx="50.0" cy="56.5" r="2.86" fill="currentColor"/>
  <circle cx="56.5" cy="56.5" r="2.77" fill="currentColor"/>
  <circle cx="63.0" cy="56.5" r="2.54" fill="currentColor"/>
  <circle cx="69.5" cy="56.5" r="2.23" fill="currentColor"/>
  <circle cx="76.0" cy="56.5" r="1.86" fill="currentColor"/>
  <circle cx="82.5" cy="56.5" r="1.43" fill="currentColor"/>
  <circle cx="89.0" cy="56.5" r="0.96" fill="currentColor"/>
  <circle cx="11.0" cy="63.0" r="0.83" fill="currentColor"/>
  <circle cx="17.5" cy="63.0" r="1.30" fill="currentColor"/>
  <circle cx="24.0" cy="63.0" r="1.71" fill="currentColor"/>
  <circle cx="30.5" cy="63.0" r="2.07" fill="currentColor"/>
  <circle cx="37.0" cy="63.0" r="2.35" fill="currentColor"/>
  <circle cx="43.5" cy="63.0" r="2.54" fill="currentColor"/>
  <circle cx="50.0" cy="63.0" r="2.61" fill="currentColor"/>
  <circle cx="56.5" cy="63.0" r="2.54" fill="currentColor"/>
  <circle cx="63.0" cy="63.0" r="2.35" fill="currentColor"/>
  <circle cx="69.5" cy="63.0" r="2.07" fill="currentColor"/>
  <circle cx="76.0" cy="63.0" r="1.71" fill="currentColor"/>
  <circle cx="82.5" cy="63.0" r="1.30" fill="currentColor"/>
  <circle cx="89.0" cy="63.0" r="0.83" fill="currentColor"/>
  <circle cx="11.0" cy="69.5" r="0.63" fill="currentColor"/>
  <circle cx="17.5" cy="69.5" r="1.08" fill="currentColor"/>
  <circle cx="24.0" cy="69.5" r="1.48" fill="currentColor"/>
  <circle cx="30.5" cy="69.5" r="1.81" fill="currentColor"/>
  <circle cx="37.0" cy="69.5" r="2.07" fill="currentColor"/>
  <circle cx="43.5" cy="69.5" r="2.23" fill="currentColor"/>
  <circle cx="50.0" cy="69.5" r="2.29" fill="currentColor"/>
  <circle cx="56.5" cy="69.5" r="2.23" fill="currentColor"/>
  <circle cx="63.0" cy="69.5" r="2.07" fill="currentColor"/>
  <circle cx="69.5" cy="69.5" r="1.81" fill="currentColor"/>
  <circle cx="76.0" cy="69.5" r="1.48" fill="currentColor"/>
  <circle cx="82.5" cy="69.5" r="1.08" fill="currentColor"/>
  <circle cx="89.0" cy="69.5" r="0.63" fill="currentColor"/>
  <circle cx="17.5" cy="76.0" r="0.79" fill="currentColor"/>
  <circle cx="24.0" cy="76.0" r="1.17" fill="currentColor"/>
  <circle cx="30.5" cy="76.0" r="1.48" fill="currentColor"/>
  <circle cx="37.0" cy="76.0" r="1.71" fill="currentColor"/>
  <circle cx="43.5" cy="76.0" r="1.86" fill="currentColor"/>
  <circle cx="50.0" cy="76.0" r="1.91" fill="currentColor"/>
  <circle cx="56.5" cy="76.0" r="1.86" fill="currentColor"/>
  <circle cx="63.0" cy="76.0" r="1.71" fill="currentColor"/>
  <circle cx="69.5" cy="76.0" r="1.48" fill="currentColor"/>
  <circle cx="76.0" cy="76.0" r="1.17" fill="currentColor"/>
  <circle cx="82.5" cy="76.0" r="0.79" fill="currentColor"/>
  <circle cx="24.0" cy="82.5" r="0.79" fill="currentColor"/>
  <circle cx="30.5" cy="82.5" r="1.08" fill="currentColor"/>
  <circle cx="37.0" cy="82.5" r="1.30" fill="currentColor"/>
  <circle cx="43.5" cy="82.5" r="1.43" fill="currentColor"/>
  <circle cx="50.0" cy="82.5" r="1.48" fill="currentColor"/>
  <circle cx="56.5" cy="82.5" r="1.43" fill="currentColor"/>
  <circle cx="63.0" cy="82.5" r="1.30" fill="currentColor"/>
  <circle cx="69.5" cy="82.5" r="1.08" fill="currentColor"/>
  <circle cx="76.0" cy="82.5" r="0.79" fill="currentColor"/>
  <circle cx="30.5" cy="89.0" r="0.63" fill="currentColor"/>
  <circle cx="37.0" cy="89.0" r="0.83" fill="currentColor"/>
  <circle cx="43.5" cy="89.0" r="0.96" fill="currentColor"/>
  <circle cx="50.0" cy="89.0" r="1.00" fill="currentColor"/>
  <circle cx="56.5" cy="89.0" r="0.96" fill="currentColor"/>
  <circle cx="63.0" cy="89.0" r="0.83" fill="currentColor"/>
  <circle cx="69.5" cy="89.0" r="0.63" fill="currentColor"/>
</svg>